<svg width="284" height="143" viewBox="0 0 284 143" fill="none" xmlns="http://www.w3.org/2000/svg">
<g clip-path="url(#clip0_349_10715)">
<path d="M120 28.94H123.67C124.415 28.9403 125.142 29.1698 125.752 29.5974C126.362 30.025 126.825 30.6298 127.08 31.33L134.43 51.41L141.83 31.32C142.087 30.6225 142.552 30.0206 143.162 29.5951C143.771 29.1696 144.497 28.941 145.24 28.94H148.75C148.896 28.9386 149.039 28.9734 149.168 29.0413C149.297 29.1092 149.407 29.2081 149.489 29.329C149.57 29.45 149.62 29.5892 149.634 29.7343C149.648 29.8793 149.626 30.0256 149.57 30.16L137.78 59.16C137.715 59.324 137.602 59.4644 137.456 59.5626C137.309 59.6608 137.136 59.7122 136.96 59.71H131.84C131.664 59.7108 131.492 59.6589 131.346 59.5608C131.199 59.4628 131.086 59.3231 131.02 59.16L119.18 30.16C119.124 30.0256 119.102 29.8793 119.116 29.7343C119.13 29.5892 119.18 29.45 119.261 29.329C119.343 29.2081 119.453 29.1092 119.581 29.0413C119.71 28.9734 119.854 28.9386 120 28.94V28.94Z" fill="#000840"/>
<path d="M177.11 46.7201H155.47C156.23 51.7201 159.76 54.4801 164.28 54.4801C165.703 54.4965 167.115 54.2311 168.435 53.699C169.755 53.1669 170.956 52.3788 171.97 51.3801C172.134 51.2353 172.346 51.1554 172.565 51.1554C172.784 51.1554 172.996 51.2353 173.16 51.3801L176 53.8901C176.175 54.0459 176.282 54.2646 176.297 54.4986C176.312 54.7327 176.234 54.9632 176.08 55.1401C174.578 56.7994 172.733 58.1123 170.673 58.9877C168.613 59.8631 166.387 60.2802 164.15 60.2101C155.29 60.2101 148.46 53.7801 148.46 44.3401V43.5001C148.46 34.9501 155.46 27.8601 164.01 28.3101C175.64 28.9201 178.35 38.9301 178.01 45.8901C177.997 46.1182 177.896 46.3324 177.728 46.4873C177.56 46.6422 177.338 46.7257 177.11 46.7201V46.7201ZM171.11 42.0801C170.65 37.5701 167.98 34.0801 163.35 34.0801C159.07 34.0801 156.05 37.3801 155.42 42.0801H171.11Z" fill="#000840"/>
<path d="M180 44.4001V44.2901C179.973 42.182 180.369 40.0898 181.163 38.137C181.958 36.1842 183.136 34.4103 184.627 32.92C186.118 31.4297 187.893 30.2531 189.846 29.4596C191.799 28.6661 193.892 28.2719 196 28.3001C198.155 28.226 200.301 28.6061 202.3 29.4159C204.298 30.2256 206.104 31.4468 207.6 33.0001C207.758 33.1657 207.847 33.386 207.847 33.6151C207.847 33.8442 207.758 34.0645 207.6 34.2301L204.41 37.6301C204.328 37.7157 204.229 37.7838 204.12 37.8303C204.011 37.8769 203.893 37.9009 203.775 37.9009C203.656 37.9009 203.539 37.8769 203.43 37.8303C203.321 37.7838 203.222 37.7157 203.14 37.6301C202.22 36.6298 201.102 35.8314 199.858 35.2857C198.613 34.74 197.269 34.4589 195.91 34.4601C190.81 34.4601 187.05 38.8601 187.05 44.1901V44.3101C187.05 49.7501 190.81 54.0901 196.2 54.0901C197.566 54.0757 198.916 53.7898 200.171 53.249C201.426 52.7082 202.561 51.9234 203.51 50.9401C203.676 50.7788 203.898 50.6886 204.13 50.6886C204.361 50.6886 204.584 50.7788 204.75 50.9401L207.75 53.8901C207.911 54.0562 208.001 54.2786 208.001 54.5101C208.001 54.7416 207.911 54.964 207.75 55.1301C206.259 56.8032 204.419 58.1275 202.358 59.009C200.298 59.8904 198.069 60.3073 195.83 60.2301C193.743 60.2597 191.671 59.8705 189.737 59.0855C187.803 58.3004 186.046 57.1355 184.57 55.6596C183.094 54.1837 181.93 52.4268 181.145 50.4929C180.359 48.5589 179.97 46.4871 180 44.4001V44.4001Z" fill="#000840"/>
<path d="M213.34 51.06V35H210.34C210.224 35.0014 210.109 34.9795 210.002 34.9358C209.894 34.892 209.797 34.8273 209.715 34.7453C209.633 34.6633 209.568 34.5657 209.524 34.4584C209.481 34.351 209.459 34.236 209.46 34.12V29.82C209.46 29.5866 209.553 29.3628 209.718 29.1978C209.883 29.0328 210.107 28.94 210.34 28.94H213.34V21.42C213.34 21.1866 213.433 20.9628 213.598 20.7978C213.763 20.6328 213.987 20.54 214.22 20.54H216.71C217.675 20.54 218.601 20.9235 219.284 21.6062C219.967 22.2888 220.35 23.2147 220.35 24.18V28.94H227.68C227.914 28.94 228.139 29.0324 228.306 29.1972C228.472 29.3619 228.567 29.5857 228.57 29.82V34.08C228.57 34.1964 228.547 34.3117 228.502 34.4191C228.457 34.5265 228.392 34.624 228.309 34.7059C228.226 34.7877 228.128 34.8523 228.02 34.8959C227.912 34.9396 227.796 34.9614 227.68 34.96H220.35V50C220.35 52.72 221.73 53.82 224.11 53.82C225.19 53.8255 226.263 53.6427 227.28 53.28C227.413 53.2338 227.554 53.2199 227.693 53.2396C227.832 53.2592 227.965 53.3119 228.079 53.3931C228.194 53.4744 228.287 53.5819 228.352 53.7066C228.416 53.8313 228.45 53.9696 228.45 54.11V57.98C228.451 58.142 228.408 58.3012 228.325 58.4404C228.242 58.5796 228.123 58.6936 227.98 58.77C226.17 59.6774 224.164 60.124 222.14 60.07C217 60 213.34 57.78 213.34 51.06Z" fill="#000840"/>
<path d="M230.25 44.4V44.29C230.234 39.967 231.936 35.8147 234.982 32.7466C238.027 29.6785 242.167 27.946 246.49 27.93C250.813 27.9141 254.965 29.6162 258.033 32.6618C261.101 35.7074 262.834 39.847 262.85 44.17V44.29C262.84 46.4177 262.406 48.5219 261.572 50.4797C260.739 52.4375 259.524 54.2094 257.998 55.6919C256.472 57.1743 254.665 58.3375 252.684 59.1133C250.703 59.8891 248.587 60.2619 246.46 60.21C244.35 60.2634 242.251 59.8939 240.287 59.1234C238.322 58.3528 236.532 57.1967 235.021 55.7232C233.51 54.2498 232.31 52.4888 231.49 50.5441C230.671 48.5994 230.249 46.5103 230.25 44.4ZM255.84 44.4V44.29C255.84 38.9 251.96 34.44 246.46 34.44C240.96 34.44 237.26 38.84 237.26 44.17V44.29C237.26 49.61 241.13 54.07 246.58 54.07C252.25 54.07 255.84 49.67 255.84 44.4Z" fill="#000840"/>
<path d="M272.64 47.8701V58.6301C272.64 58.7465 272.617 58.8618 272.572 58.9692C272.527 59.0766 272.461 59.1741 272.379 59.2559C272.296 59.3378 272.198 59.4024 272.09 59.446C271.982 59.4896 271.866 59.5114 271.75 59.5101H266.51C266.276 59.5101 266.053 59.4174 265.888 59.2524C265.723 59.0873 265.63 58.8635 265.63 58.6301V29.8201C265.632 29.5875 265.726 29.3652 265.891 29.2007C266.055 29.0362 266.277 28.9427 266.51 28.9401H270C270.704 28.9401 271.379 29.219 271.877 29.7157C272.376 30.2123 272.657 30.8864 272.66 31.5901V35.8301C274.46 31.5101 277.71 28.4801 282.6 28.3501C282.717 28.3514 282.832 28.3757 282.94 28.4217C283.047 28.4676 283.145 28.5343 283.226 28.6178C283.308 28.7014 283.372 28.8003 283.416 28.9087C283.459 29.0172 283.481 29.1332 283.48 29.2501V32.4401C283.489 33.2614 283.215 34.0609 282.706 34.7052C282.196 35.3494 281.481 35.7994 280.68 35.9801C277.45 36.6301 272.64 39.0801 272.64 47.8701Z" fill="#000840"/>
<path d="M89.37 0C60.69 0 54 106.65 52.16 106.65C51.63 106.65 39.99 100.97 25.64 42.31C23.19 32.31 19.7 23.71 11.26 24.76C2.49 25.86 0 38.48 0 50.84C0 63.84 8.62 142.32 41.87 142.32C57.17 142.32 61.23 127.83 61.69 125.96C61.702 125.903 61.7361 125.853 61.7849 125.821C61.8336 125.789 61.893 125.778 61.95 125.79C64.78 126.18 96.07 128.06 103.88 23.05C104.72 11.73 100.54 0 89.37 0ZM41.72 126.63C37.04 127.21 28.72 118.95 21.72 90.02C21.7093 89.9657 21.7186 89.9093 21.7461 89.8612C21.7737 89.8132 21.8176 89.7767 21.8699 89.7584C21.9222 89.7402 21.9793 89.7414 22.0308 89.7619C22.0822 89.7824 22.1246 89.8208 22.15 89.87C25.01 96.15 33.67 113.36 46.07 121.38C46.1074 121.404 46.1362 121.439 46.1524 121.48C46.1686 121.522 46.1712 121.567 46.16 121.61C45.91 122.44 44.68 126.25 41.72 126.63ZM70 102.85C69.967 102.888 69.9226 102.914 69.8735 102.924C69.8244 102.934 69.7733 102.928 69.728 102.907C69.6827 102.885 69.6457 102.849 69.6226 102.805C69.5995 102.76 69.5915 102.709 69.6 102.66C71.01 94.25 83.44 20.76 87.6 20.76C91.76 20.76 83.09 87.39 70 102.85Z" fill="url(#paint0_linear_349_10715)"/>
</g>
<defs>
<linearGradient id="paint0_linear_349_10715" x1="51.99" y1="142.32" x2="51.99" y2="0" gradientUnits="userSpaceOnUse">
<stop stop-color="#0DE839"/>
<stop offset="0.08" stop-color="#0DE642"/>
<stop offset="0.21" stop-color="#0DE259"/>
<stop offset="0.37" stop-color="#0DDA80"/>
<stop offset="0.56" stop-color="#0DD0B5"/>
<stop offset="0.72" stop-color="#0DC6E8"/>
<stop offset="1" stop-color="#1F79FF"/>
</linearGradient>
<clipPath id="clip0_349_10715">
<rect width="283.46" height="142.32" fill="white"/>
</clipPath>
</defs>
</svg>
